<svg id="Layer_1" data-name="Layer 1" xmlns="http://www.w3.org/2000/svg" xmlns:xlink="http://www.w3.org/1999/xlink" viewBox="0 0 752.41 637.09"><defs><style>.cls-1{fill:none;}.cls-2{clip-path:url(#clip-path);}.cls-3{fill:#ffbd59;}.cls-4{clip-path:url(#clip-path-2);}.cls-5{clip-path:url(#clip-path-3);}.cls-6{clip-path:url(#clip-path-4);}.cls-7{fill:#08415d;}.cls-8{clip-path:url(#clip-path-5);}.cls-9{clip-path:url(#clip-path-6);}.cls-10{fill:#db315e;}.cls-11{fill:#fcfafc;}.cls-12{fill:#d6d7cc;}.cls-13{fill:#a4add5;}.cls-14{fill:#eca250;}.cls-15{clip-path:url(#clip-path-8);}.cls-16{fill:#fefcf6;}.cls-17{fill:#5b7383;}.cls-18{fill:#5e5a4f;}.cls-19{fill:#a9afb1;}.cls-20{fill:#548fd3;}.cls-21{fill:#90c8d0;}.cls-22{clip-path:url(#clip-path-9);}</style><clipPath id="clip-path" transform="translate(-26.59 -86.67)"><rect class="cls-1" x="209.9" y="86.67" width="395.86" height="395.87"/></clipPath><clipPath id="clip-path-2" transform="translate(-26.59 -86.67)"><rect class="cls-1" x="267.86" y="111.49" width="348.62" height="102.12"/></clipPath><clipPath id="clip-path-3" transform="translate(-26.59 -86.67)"><polygon class="cls-1" points="260.25 133.43 607.02 78.44 624.32 187.58 277.55 242.56 260.25 133.43"/></clipPath><clipPath id="clip-path-4" transform="translate(-26.59 -86.67)"><polygon class="cls-1" points="606.4 78.54 259.62 133.52 276.93 242.66 623.69 187.69 606.4 78.54"/></clipPath><clipPath id="clip-path-5" transform="translate(-26.59 -86.67)"><rect class="cls-1" x="74.18" y="167.83" width="436.66" height="80.99"/></clipPath><clipPath id="clip-path-6" transform="translate(-26.59 -86.67)"><polygon class="cls-1" points="71.74 223.57 506.95 164.39 509.97 186.56 74.75 245.74 71.74 223.57"/></clipPath><clipPath id="clip-path-8" transform="translate(-26.59 -86.67)"><rect class="cls-1" x="176.39" y="336.86" width="345.02" height="137.34"/></clipPath><clipPath id="clip-path-9" transform="translate(-26.59 -86.67)"><rect class="cls-1" x="211.52" y="463.63" width="328.57" height="49.3"/></clipPath></defs><title>Untitled-1</title><g class="cls-2"><path class="cls-3" d="M606.39,284.92q0,9.74-.95,19.43c-.64,6.47-1.58,12.88-2.86,19.25s-2.84,12.65-4.72,18.87-4.07,12.32-6.56,18.32S586,372.65,583,378.37s-6.4,11.29-10,16.69-7.49,10.62-11.6,15.62a191.84,191.84,0,0,1-13.07,14.42q-6.89,6.88-14.41,13.07a194.29,194.29,0,0,1-15.63,11.59q-8.08,5.42-16.68,10T484,468.08q-9,3.72-18.31,6.55a194.2,194.2,0,0,1-18.87,4.73q-9.56,1.9-19.24,2.85a197.11,197.11,0,0,1-38.86,0q-9.71-.94-19.26-2.85c-6.35-1.26-12.65-2.84-18.86-4.73s-12.32-4.07-18.32-6.55-11.86-5.26-17.59-8.32-11.28-6.39-16.69-10-10.6-7.47-15.63-11.59-9.82-8.48-14.41-13.07-8.94-9.4-13.07-14.42-8-10.22-11.58-15.62a192.74,192.74,0,0,1-10-16.69q-4.6-8.58-8.32-17.58t-6.57-18.32q-2.82-9.33-4.71-18.87t-2.86-19.25q-1-9.69-.95-19.43t.95-19.43q1-9.69,2.86-19.24t4.71-18.87q2.85-9.33,6.57-18.33t8.32-17.58a194.26,194.26,0,0,1,10-16.69q5.4-8.1,11.58-15.63c4.13-5,8.47-9.82,13.07-14.42s9.39-8.94,14.41-13,10.24-8,15.63-11.6,11-6.94,16.69-10,11.59-5.83,17.59-8.32,12.1-4.66,18.32-6.55,12.51-3.46,18.86-4.73,12.79-2.21,19.26-2.85,12.93-1,19.42-1,13,.32,19.44,1,12.87,1.59,19.24,2.85,12.66,2.85,18.87,4.73S478,99.28,484,101.76s11.87,5.26,17.6,8.32,11.29,6.4,16.68,10a194.41,194.41,0,0,1,15.63,11.6q7.53,6.16,14.41,13t13.07,14.42q6.17,7.53,11.6,15.63t10,16.69q4.57,8.59,8.31,17.58t6.56,18.33q2.82,9.3,4.72,18.87c1.28,6.37,2.22,12.78,2.86,19.24S606.39,278.42,606.39,284.92Z" transform="translate(-26.59 -86.67)"/></g><g class="cls-4"><g class="cls-5"><g class="cls-6"><path class="cls-7" d="M385.58,114c-2.54,0-7.95,2-9.28,2.71.2.55,6.75,14.53,7.52,15.23-.09,1.43,22.6,46.79,23,48.83-60.05,8.42-113.59,12.57-113.59,12.57-5.38.13-7.95,2.7-22,6.43l-.34.52c2.33-.72,4.75-1.14,7-2a14.64,14.64,0,0,1,5.58-.62c1.94-.13,59.25-1.88,59.69-1.78,4.11.82,5.47.57,5.78,1.45-13.44,2.37-16.36,1.7-19.36,3.11.29.54.94.31,1.41.29s15.29-1.22,17-1.17c1.52-.16,3-.52,4.56-.58.62-.06.95.54,1.39.86.53.56,1.36.4,2,.49-.06,3.79-1.29,3.13-1.4,4.76.77.13,1.54.07,2.29.13,1.76.67,1.78,2.32,9.71-1.13.83-.35,1.67.12,2.49.23,1.56.39,3.07-.4,4.53-.82,4.9-1.43,8.18-3.11,9.46-6.8,0,0,18.92-1.09,18.92-1.1,2,1,1,2.22,4.48,4.82a5,5,0,0,0,3.36,1c4.34-.42,38.69.35,50.36-1.11,1,3.57.63,2.65,2.87,4.26-1,.21-2.13.06-3,.59-1.29,1.52-.8,5,.95,6a2,2,0,0,0,2.45-1,3,3,0,0,1,1.62-1.72c1.93,2.79,1.85,2,4,1.47.77.16,1.35,1.06,2.23.74,1.63-.26,1.43-2.65,3.12-2.86a5.05,5.05,0,0,0,1.62,2c2.19.41,2.55-1.53,2.89-3a3.88,3.88,0,0,0,2.81-.62c1-1.57.58-3.6-.26-5.14-.66-1.43-3.11-1.21-3.65.23a4,4,0,0,0-.22,1.57l-1.1.1c-2.14-3-1.55-3.11-1-4.26a2,2,0,0,1-.73-.92c1.4-.51,3.11-.85,4-2.16.46.11,1.1-.07,1.36.42.85,1.67,1.43,3.5,2.43,5.1,1.25-.37,2.64-.12,3.72-1,.86-.3.7-1.72,1.73-1.68s1.95-1.13,3.09-1c.29.32-.2.62-.3.92a3,3,0,0,1,1.35,2.38c-.95.06-2.2-.27-2.82.69-1.49,2.37,0,7,2.55,6,1.41-.29,1.18-2.55,2.72-2.6.77.38,1.07,1.47,2,1.77,2.72.13,2.39-1.59,2.65-3,.95,0,4.23,1.17,3-4.42-.31-2-2.2-2.91-3.72-1.51a5,5,0,0,0-.58,2.19,4.29,4.29,0,0,1-1.38-.09c-2.32-2.43-.66-3.86-1.3-4.78a3,3,0,0,1-.38-2.09c.77.62.47,1.17,2.52,4.21a22.53,22.53,0,0,0,4.44-2c.94-.58,2-.9,2.92-1.52.58-.59.67-1.47,1.14-2.13.95-.77,2.15-1.19,3.07-2a3.94,3.94,0,0,0,.25-1.58,24.51,24.51,0,0,0-2.14-3.37,38.3,38.3,0,0,1,5.82-1.92c1.08.31,2.71,1.87,5.9,4.12a1.32,1.32,0,0,1,.36,1.39,7.05,7.05,0,0,0-.95,2.09c-.22,4.06,1.2,4.34,2.44,4.9,0,.14.09.44.12.58-1.25,0-4-.76-3.31,3.77a3.54,3.54,0,0,0,2.18,3,2.31,2.31,0,0,0,2.09-1.73c.22-.7,1-1,1.5-1.4.71.63,1,1.82,2,2a2.91,2.91,0,0,0,1.81-.59c1.35-2.17.29-6.26-2.18-6.23-.06-.41-.14-.82-.21-1.24,5.37,3.91,4.58-8.06.25-5.69-.9.55-.92,1.69-1.14,2.6l-1.06.29c-1-2-.26-4.63-1-9.38,1.68.22,3,2,5.27,2.83.64.22,1,.85,1.7,1.07a1.4,1.4,0,0,0,1.17-1.26,5.49,5.49,0,0,1-1.55.27c-4.16-2.28-3.33-1.79-4.27-5.21,2.85-1.35,8.56-2.38,10.66-4.53.5-.49,1-1.1,1.72-1.18.18,1.53-.3,2.7,1.68,4.92,2.81-.12,2.24-.35,3.12-2.64.62.73,1.09,2,2.23,1.93,3,.09,2.55-4.18.72-6.77,1.22-.59,2.61-.77,3.85-1.33a27.9,27.9,0,0,1,4.07-1.39c1.94.71,3.78,1.94,5.93,1.84-.63,1.5-.24,3.07,0,4.59,2.54.68,1.54,1.85,5.86.79,1.37-.33,2.57-1.36,4-1.24,3.72.07,9-2.5,11.6-5.6,2.25-3.4.89-6.45.53-8,1.77.09,1.77,2.44,5.18,2.45-.87,3.13-.46,2.15-.07,4.68,2.17,1.25,2.23,2.85,8.86.29a9.89,9.89,0,0,0,5.77-.8c13.69-4.81,8.7-15.52,3.11-17.08-2-.72-4.17-.24-6.19.23-.38.17-.71-.12-1.06-.27,2.56-1.5,19.41-6.77,20.9-7.78-.08-.41-.15-.81-.22-1.22a9.38,9.38,0,0,0-1.68-.91c.12-.16.26-.34.38-.52-4.3-2.38-10.55,4.69-48.7,14.77-2.23.51-4.52.63-6.72,1.23a31.62,31.62,0,0,1-7.92,1.07,8,8,0,0,0,.29-1.31c-.26-.95-.74-1.83-1.09-2.75-.2-.38.17-.7.33-1,4.06-6.65,4.67-13.09,3.48-16.49a13.66,13.66,0,0,0-4.77-5,40.76,40.76,0,0,0-4.87-3.29,16.94,16.94,0,0,1-3.07-2.05c-2.69-2.65-7.45-5.64-11-4.5-8.41.85-23.44,9.81-23.61,9.86-.38-.56-.67-1.3-1.36-1.54.26.68.55,1.35.8,2a155.57,155.57,0,0,0-14.46,10c-2.05,1.35-3.63,3.38-5.94,4.32-26.59,11.62-4.87,1.77-43.48,19.17a4.38,4.38,0,0,1-1.85.72c-1.15-.08-3.53-3-6.9-5.75-2.2-1.8-46.91-44.31-48.45-44.65M387,190.47c5.08-.49,10.14-.95,15.2-1.51.12.29.25.59.36.88-4,1-6.05.58-19,2.25a.54.54,0,0,1-.64-.63,9,9,0,0,1,4.06-1m131.3-9.68a11.18,11.18,0,0,1,.68,4.69,2.2,2.2,0,0,1-1-.44c-1.13-1-2.5-1.82-3.25-3.19a15,15,0,0,1,3.57-1.06M471,197.9c.36,2,.26,4.08.91,6a9.31,9.31,0,0,0-3.1.44,13.8,13.8,0,0,1-2.78-1.22c-.24-.5.07-1.08.14-1.59.44.5,1.5,2.33,3.52,1.06,1.08-1.33.9-3.17.47-4.71Z" transform="translate(-26.59 -86.67)"/></g></g></g><g class="cls-8"><g class="cls-9"><g class="cls-9"><path class="cls-7" d="M508.31,178.59c-.87-4.79-3.15-8.31-6.41-8-5.68.55-11.61-.77-17.13.94-5.93,1.87-11.81,1.72-17.88.95-1.2-.17-2.3-.44-3.26.33-2.47,2.14-5.43,1.59-8.29,1.66-4.24.15-8.59-1.18-12.41,2-.56.49-1.67.33-2.52.23-11.64-1.72-22.68,2.45-34,3.67-2.46,2.25-5.6.34-8.24,1.23a31.91,31.91,0,0,1-9.27,1.58c-5.39.3-11-.22-15.89,3a8.9,8.9,0,0,1-3.33.66c-4.8.76-9.61,1.31-14.37,2.38-2.59.57-5,1.1-7.51-.35-1.39-.88-2.78-.06-4.07.55-4.91,2.36-11.32,4.52-15.33,4.11a21.81,21.81,0,0,0-9.3,1.36,49.94,49.94,0,0,1-6.69,1.67c-25.85,4.25-51.67,8.62-77.39,13.82-13.28,2.65-26.58,5.1-39.87,7.65-5.09,1-10.09,2.54-15.21,3.35-18.75,3.09-37.58,5.64-56.23,9.56-5.7,1.2-10.93,3.51-16.62,4.71-9.51,2.14-19.07,4.73-28.54,7.08-1.34.4-2.66.9-2.92,2.85,11.93-2.37,23.72-5,35.48-7.06,9.87-1.77,19.85-2.91,29.78-4.26,7.11-1,14.23-1.83,21.32-3,12-2,23.8-4.52,35.82-6.15,6.9-.94,13.64-2.29,20.38-3.62,7.06-1.39,14.23-2.05,21.17-3.41,21.7-4.24,43.4-8.35,65.49-10.4,3.65-2.2,8-.34,11.78-1.93a31.43,31.43,0,0,1,16.09-2.39c1.63.21,3.47-.37,5.12-.7,4.77-1,9.53-2,14.31-2.9,12.79-2.38,25.54-4.12,38.57-4,.85,0,1.94.17,2.5-.34,4.46-3.27,9.93-1.46,14.81-3.08a32.64,32.64,0,0,1,11-1.39c6.53.29,12.87-.89,19.35-1,4.16,0,7.72-2,11.71-2.45,6-.6,12.06-1.43,18.06-1.93,8.84-.77,17.73-2.09,26.63-1.59,3.56.26,6.86-.51,10.3-1.07C508.49,182.29,508.83,181.61,508.31,178.59Z" transform="translate(-26.59 -86.67)"/></g></g></g><path class="cls-10" d="M391.07,319.7s9.75-16.19,49.86-4.81l32.26,36s-41.5-28.74-82.12-31.16" transform="translate(-26.59 -86.67)"/><path class="cls-11" d="M345.44,332.77s30.91-28.95,82.91-11.68c0,0,43.2,17.73,48.06,27.75S479,376,479,376s-112.2-44.9-133.51-43.26" transform="translate(-26.59 -86.67)"/><path class="cls-12" d="M495.54,405.39s19.19-30.79-79.48-60.09-92.83-13.63-94.92,0c0,0,132.56,11.72,174.4,60.1" transform="translate(-26.59 -86.67)"/><path class="cls-13" d="M278.32,359s6.23-44.33,121.82-5.7,112,31.72,113.91,64.52L278.32,359" transform="translate(-26.59 -86.67)"/><path class="cls-14" d="M397.27,381.37s3.31-19.53,48-.33S470.25,404,470.25,404l-73-22.59" transform="translate(-26.59 -86.67)"/><path class="cls-14" d="M314.48,362s3.2-20.76,44.68-6.85l5.4,17.68L314.48,362" transform="translate(-26.59 -86.67)"/><g class="cls-15"><path class="cls-16" d="M176.46,340.86s43.63,77.4,61,130.44c0,0,183.9,6.7,277.22-2.79,0,0,6.79-42.53,1.55-53.8,0,0-249.93-83.53-339.81-73.85" transform="translate(-26.59 -86.67)"/></g><path class="cls-17" d="M365.72,417.73a6.51,6.51,0,1,1-5.45-7.4,6.5,6.5,0,0,1,5.45,7.4" transform="translate(-26.59 -86.67)"/><path class="cls-17" d="M339.67,413.17a6.52,6.52,0,1,1-5.45-7.41,6.51,6.51,0,0,1,5.45,7.41" transform="translate(-26.59 -86.67)"/><path class="cls-17" d="M406.12,422.61a3.83,3.83,0,1,1-3.21-4.36,3.84,3.84,0,0,1,3.21,4.36" transform="translate(-26.59 -86.67)"/><path class="cls-17" d="M393.42,367.33A3.83,3.83,0,1,1,390.2,363a3.83,3.83,0,0,1,3.22,4.38" transform="translate(-26.59 -86.67)"/><path class="cls-17" d="M386.26,420.46a4.83,4.83,0,1,1-4.05-5.49,4.87,4.87,0,0,1,4.05,5.49" transform="translate(-26.59 -86.67)"/><path class="cls-17" d="M422.31,424.64a3.31,3.31,0,1,1-2.77-3.75,3.31,3.31,0,0,1,2.77,3.75" transform="translate(-26.59 -86.67)"/><path class="cls-17" d="M489.46,396.38a3.31,3.31,0,1,1-2.76-3.77,3.29,3.29,0,0,1,2.76,3.77" transform="translate(-26.59 -86.67)"/><path class="cls-17" d="M437.77,426.19a2.59,2.59,0,1,1-2.17-2.95,2.61,2.61,0,0,1,2.17,2.95" transform="translate(-26.59 -86.67)"/><path class="cls-17" d="M451.44,428a2.3,2.3,0,1,1-1.92-2.61,2.29,2.29,0,0,1,1.92,2.61" transform="translate(-26.59 -86.67)"/><path class="cls-17" d="M459.15,428.9a2,2,0,1,0,2.29-1.7,2,2,0,0,0-2.29,1.7" transform="translate(-26.59 -86.67)"/><path class="cls-17" d="M473.34,431.07a2,2,0,1,0,4,.6,2,2,0,0,0-1.68-2.28,2,2,0,0,0-2.3,1.68" transform="translate(-26.59 -86.67)"/><path class="cls-18" d="M428.42,342s.09-12.21,14.36-5S451,352.54,451,352.54L428.42,342" transform="translate(-26.59 -86.67)"/><path class="cls-18" d="M414,323.53s-33-8.17-47.52,2.78l38.35,5.88s6.08-3.15,9.17-8.66" transform="translate(-26.59 -86.67)"/><path class="cls-17" d="M378.87,363.42a4.74,4.74,0,1,1-4-5.39,4.74,4.74,0,0,1,4,5.39" transform="translate(-26.59 -86.67)"/><path class="cls-17" d="M192.26,363.07l-3,1.5,3.88,7.42,3.65-1.64s272,41.53,321.42,60.76a27.52,27.52,0,0,0,0-4.92s-293.15-68-325.94-63.12" transform="translate(-26.59 -86.67)"/><path class="cls-19" d="M180.09,344.64a551.32,551.32,0,0,1,44.41,68.92c8.09,15.06,22.84,46.33,20.73,51.62-2.46,6.22-6.21-2.82-19.1-32.75-7.6-17.62-29.26-62.3-46-87.79" transform="translate(-26.59 -86.67)"/><path class="cls-20" d="M536.07,470.78s-248.8,51.52-311.24-.6c-33.49-28-1-20.11,35.91-4.72s30.55,3.52,42.36-3.68,36.66,3.73,44.27,8.4,16.42-10.05,34.21-6.51c18.05,3.58,23.52,11,40.77,6.51s13.54-15.69,36.78-11.06,35.07,7.81,42.36,0,34.58,11.66,34.58,11.66" transform="translate(-26.59 -86.67)"/><path class="cls-21" d="M536.07,470.78s-248.8,67.73-319.42,12.7c-34.42-26.84,7.21-25.78,44.09-10.4s30.55,3.51,42.36-3.69,36.66,3.73,44.27,8.41,11.91-10.77,34.21-6.51c18.06,3.45,23.52,11,40.77,6.51s13.54-15.69,36.78-11.06,35.07,7.81,42.36,0,34.58,4,34.58,4" transform="translate(-26.59 -86.67)"/><g class="cls-22"><path class="cls-20" d="M540,470.78S464.77,495.44,379.74,505c-46.46,5.24-132.91,11.12-149.44-5.39-45.71-45.68,5.7-28.34,29.9-18,12.86,5.49,29.85,7.33,41.27-.52s36.79,1.68,44.65,5.91,11.3-11.4,33.81-8.4c18.22,2.45,24.1,9.67,41.07,4.22s12.63-16.4,36.1-13.08,40.6,6.73,47.44-1.47,35.49,2.5,35.49,2.5" transform="translate(-26.59 -86.67)"/></g><path class="cls-7" d="M39,619.47v-2.58a10.7,10.7,0,0,0,2.64-.72A3.18,3.18,0,0,0,43,614.85a5.06,5.06,0,0,0,.61-2.09c.07-.88.11-1.94.11-3.19v-39.4H40.57a9.55,9.55,0,0,0-3.64.55,5.61,5.61,0,0,0-2.2,1.76,9.89,9.89,0,0,0-1.59,3.14c-.44,1.32-.81,2.59-1.1,3.8H26.59V565.55H73.14v13.87H67.69c-.48-1.79-.87-3.11-1.15-4a13.09,13.09,0,0,0-1-2.14,7.6,7.6,0,0,0-1.11-1.49,5,5,0,0,0-1.26-.93,5.13,5.13,0,0,0-1.71-.55,16.19,16.19,0,0,0-2.58-.17H56v39.4a29.33,29.33,0,0,0,.11,3.19,5.46,5.46,0,0,0,.44,1.76,3.79,3.79,0,0,0,.77,1.1,4.27,4.27,0,0,0,1.26.72,10.15,10.15,0,0,0,2.2.55v2.58Z" transform="translate(-26.59 -86.67)"/><path class="cls-7" d="M100.27,619.47H79.52v-2.58a12.12,12.12,0,0,0,2.31-.88A2.71,2.71,0,0,0,83,614.74a5.47,5.47,0,0,0,.55-2,24.59,24.59,0,0,0,.17-3.13V575.51c0-1.24,0-2.28-.11-3.14a5.16,5.16,0,0,0-.55-2A3,3,0,0,0,81.83,569a9.09,9.09,0,0,0-2.31-.88v-2.59h23.06a40.12,40.12,0,0,1,7.86.66,19.1,19.1,0,0,1,5.78,2,12.22,12.22,0,0,1,3.47,2.81,11.8,11.8,0,0,1,2.2,3.9,15.87,15.87,0,0,1,.77,5.18,15,15,0,0,1-1.38,6.65,13.64,13.64,0,0,1-3.68,4.63,26.55,26.55,0,0,1-6.16,3.41v.38a13.41,13.41,0,0,1,4.78,3.41,21.91,21.91,0,0,1,3.47,5.34l2.53,5.39a21.89,21.89,0,0,0,3.25,5.39,7,7,0,0,0,3.9,2.21v2.58H114.19a54.58,54.58,0,0,1-5.18-9.41l-3.08-6.76a23.33,23.33,0,0,0-2.36-4.24,6,6,0,0,0-2-1.76,8,8,0,0,0-3.25-.5H96v12.77a20.9,20.9,0,0,0,.28,4.18,3.89,3.89,0,0,0,1.1,1.87,6.93,6.93,0,0,0,2.92,1.27ZM96,570.23v21.95h4a13.9,13.9,0,0,0,5.17-.82,7.68,7.68,0,0,0,3.3-2.37,8.79,8.79,0,0,0,1.65-3.58,21.56,21.56,0,0,0,.44-4.51c0-3.59-.85-6.27-2.53-8s-4.18-2.7-7.48-2.7C98.2,570.17,96.7,570.2,96,570.23Z" transform="translate(-26.59 -86.67)"/><path class="cls-7" d="M161.18,602.74H144.29L143,606.49c-.38,1.07-.69,2.09-.94,3.08a14.37,14.37,0,0,0-.33,3.13c0,2.62,1.38,4,4.13,4.19v2.58H128.94v-2.58a4.9,4.9,0,0,0,2.58-1,8.63,8.63,0,0,0,2-2.37,24.75,24.75,0,0,0,2-4.29l16.45-43.91H162.5l13,44.24a38.91,38.91,0,0,0,1.43,4.24,5.8,5.8,0,0,0,1.54,2,6.55,6.55,0,0,0,2.7,1.16v2.58H159.36v-2.58a5.67,5.67,0,0,0,3.08-1.16,3.39,3.39,0,0,0,1-2.59,15.29,15.29,0,0,0-.27-2.69c-.19-1-.5-2.29-.94-3.8Zm-15.41-4.62H160l-6.32-22.23Z" transform="translate(-26.59 -86.67)"/><path class="cls-7" d="M219.48,578.48a26.3,26.3,0,0,0,.94-3.08,14.47,14.47,0,0,0,.33-3.14,3.88,3.88,0,0,0-1-2.91,4.68,4.68,0,0,0-3.09-1.21v-2.59h17.06v2.59a5.67,5.67,0,0,0-2.59,1,6.63,6.63,0,0,0-1.87,2.09,26.92,26.92,0,0,0-2,4.4l-16.56,44.13h-9.13l-13-44.24a33.87,33.87,0,0,0-1.49-4.24,6.06,6.06,0,0,0-1.54-2,6,6,0,0,0-2.64-1.1v-2.59h21.84v2.59a5.12,5.12,0,0,0-3,1.15,3.21,3.21,0,0,0-1,2.53,14.76,14.76,0,0,0,.22,2.59q.27,1.22,1,4l7.87,28.39Z" transform="translate(-26.59 -86.67)"/><path class="cls-7" d="M276.31,565.55V578.1h-5.39a23.65,23.65,0,0,0-2.25-5.07,7.12,7.12,0,0,0-2.15-2.09,8.81,8.81,0,0,0-4.29-.77h-8.64V589.1h5.23a6.25,6.25,0,0,0,2.75-.5,3.69,3.69,0,0,0,1.59-1.59,14.91,14.91,0,0,0,1.27-3.58h4.46V599.5h-4.46a15,15,0,0,0-1.21-3.52,4.1,4.1,0,0,0-1.6-1.71,5.74,5.74,0,0,0-2.8-.55h-5.23v21.13h8.58a13.65,13.65,0,0,0,2.31-.17,6,6,0,0,0,1.71-.6,5.33,5.33,0,0,0,1.43-1.21,14.6,14.6,0,0,0,1.27-1.6A14,14,0,0,0,270,609a37.45,37.45,0,0,0,1.32-3.9h5.44L276,619.47H237.14v-2.58a12.12,12.12,0,0,0,2.31-.88,2.71,2.71,0,0,0,1.21-1.27,5.47,5.47,0,0,0,.55-2,24.59,24.59,0,0,0,.17-3.13V575.51c0-1.24,0-2.28-.12-3.14a5.16,5.16,0,0,0-.55-2,3,3,0,0,0-1.26-1.32,9.09,9.09,0,0,0-2.31-.88v-2.59Z" transform="translate(-26.59 -86.67)"/><path class="cls-7" d="M304.63,565.55v2.59a8.94,8.94,0,0,0-2.26.88,3.58,3.58,0,0,0-1.32,1.21,5.47,5.47,0,0,0-.61,2c-.08.86-.11,1.9-.11,3.14v39.39H308a7.87,7.87,0,0,0,3.63-.71,6.25,6.25,0,0,0,2.42-2.2,14.63,14.63,0,0,0,1.7-3.85c.51-1.61.91-3.11,1.22-4.51h5.39l-.88,16H283.88v-2.58a12.12,12.12,0,0,0,2.31-.88,3.07,3.07,0,0,0,1.21-1.27,5.59,5.59,0,0,0,.55-2.09,24.76,24.76,0,0,0,.17-3.14v-34c0-1.24,0-2.28-.11-3.14a5.16,5.16,0,0,0-.55-2,3,3,0,0,0-1.27-1.32,9.09,9.09,0,0,0-2.31-.88v-2.59Z" transform="translate(-26.59 -86.67)"/><path class="cls-7" d="M374.39,602.74H357.5l-1.32,3.75c-.38,1.07-.69,2.09-.94,3.08a14.37,14.37,0,0,0-.33,3.13c0,2.62,1.38,4,4.13,4.19v2.58H342.15v-2.58a4.9,4.9,0,0,0,2.58-1,8.63,8.63,0,0,0,2-2.37,24.75,24.75,0,0,0,2-4.29l16.45-43.91h10.57l13,44.24a38.91,38.91,0,0,0,1.43,4.24,5.8,5.8,0,0,0,1.54,2,6.61,6.61,0,0,0,2.7,1.16v2.58H372.57v-2.58a5.67,5.67,0,0,0,3.08-1.16,3.39,3.39,0,0,0,1-2.59,15.29,15.29,0,0,0-.27-2.69c-.19-1-.5-2.29-.94-3.8ZM359,598.12h14.25l-6.32-22.23Z" transform="translate(-26.59 -86.67)"/><path class="cls-7" d="M446.89,565.55v2.59a12.52,12.52,0,0,0-2.2.88,3,3,0,0,0-1.1.93,5,5,0,0,0-.72,1.82,22.06,22.06,0,0,0-.22,3.68v44H432.59l-17.78-30.76q-3.58-6.21-5.28-9.79h-.33q.38,8.48.39,17.94v12.71a21.11,21.11,0,0,0,.27,4.18,3.89,3.89,0,0,0,1.1,1.87,6.79,6.79,0,0,0,2.86,1.27v2.58H398.91v-2.58a12.56,12.56,0,0,0,2.26-.88,3,3,0,0,0,1.26-1.27,5.47,5.47,0,0,0,.55-2,24.59,24.59,0,0,0,.17-3.13V575.4a20,20,0,0,0-.28-4.07,3.51,3.51,0,0,0-1.1-1.87,6.62,6.62,0,0,0-2.86-1.32v-2.59h16l14,24.26c.88,1.55,2,3.62,3.41,6.22s2.61,5.06,3.69,7.38h.66c-.31-6.28-.44-13.16-.44-20.64v-7.32a23.17,23.17,0,0,0-.22-3.68,4,4,0,0,0-.61-1.76,3,3,0,0,0-1.1-1,15,15,0,0,0-2.31-.88v-2.59Z" transform="translate(-26.59 -86.67)"/><path class="cls-7" d="M480.28,598.73v10.84c0,1.4,0,2.46.11,3.19a8.19,8.19,0,0,0,.44,1.76,3.81,3.81,0,0,0,.78,1.1,5.44,5.44,0,0,0,1.26.72,10.15,10.15,0,0,0,2.2.55v2.58H463.28v-2.58a9.82,9.82,0,0,0,2.53-.72,3.12,3.12,0,0,0,1.49-1.27,4.87,4.87,0,0,0,.6-2.09,26.51,26.51,0,0,0,.17-3.24V598.73l-10.73-22.62q-1.38-2.83-2.15-4.29a14.87,14.87,0,0,0-1.59-2.31,4.87,4.87,0,0,0-1.21-1,5,5,0,0,0-1.54-.38v-2.59h21.07v2.59c-2,.26-3,1.26-3,3a7.66,7.66,0,0,0,.5,2.42,36.14,36.14,0,0,0,1.6,3.8l6.65,14.86,7.27-14.48a23.34,23.34,0,0,0,1.43-3.63,9.69,9.69,0,0,0,.44-2.86A3,3,0,0,0,486,569a3.12,3.12,0,0,0-2.25-.88v-2.59h15.84v2.59a5.58,5.58,0,0,0-1.76.66,7.44,7.44,0,0,0-1.54,1.32,20.75,20.75,0,0,0-2,2.64q-1.11,1.77-2.64,4.62Z" transform="translate(-26.59 -86.67)"/><path class="cls-7" d="M563.26,579.09c.36-1.22.67-2.43.94-3.64a17.37,17.37,0,0,0,.38-3.19,3.94,3.94,0,0,0-1-3,4.71,4.71,0,0,0-3-1.15v-2.59H577v2.59a5.66,5.66,0,0,0-2.43,1.15,7.39,7.39,0,0,0-1.81,2.26,33.78,33.78,0,0,0-1.93,4.89L556,619.75h-9.41l-8.92-37.09-10.56,37.09h-9.9l-11.89-44.24a25.86,25.86,0,0,0-1.54-4.51,5.17,5.17,0,0,0-1.54-1.87,5.56,5.56,0,0,0-2.09-1v-2.59h21.29v2.59a5.21,5.21,0,0,0-3.08,1.15,3.29,3.29,0,0,0-.93,2.53,29.05,29.05,0,0,0,1.1,6.55l6.87,27.46,11.34-40.28h8.91l9.25,40.28Z" transform="translate(-26.59 -86.67)"/><path class="cls-7" d="M627.3,609.57a24.36,24.36,0,0,0,.23,4.18,3.73,3.73,0,0,0,1,1.87,7.32,7.32,0,0,0,2.92,1.27v2.58H610.85v-2.58a7.71,7.71,0,0,0,3-1.21,3.33,3.33,0,0,0,.94-1.66,22.87,22.87,0,0,0,.27-4.45V593.72H597.15v15.85c0,.92,0,1.79.06,2.58a10.35,10.35,0,0,0,.33,1.93,4.35,4.35,0,0,0,.71,1.27,3.75,3.75,0,0,0,1.21.88,10,10,0,0,0,2,.66v2.58H580.7v-2.58A12.12,12.12,0,0,0,583,616a2.71,2.71,0,0,0,1.21-1.27,5.47,5.47,0,0,0,.55-2,24.59,24.59,0,0,0,.17-3.13V575.51c0-1.24,0-2.28-.11-3.14a5.16,5.16,0,0,0-.55-2A3,3,0,0,0,583,569a9.09,9.09,0,0,0-2.31-.88v-2.59h20.74v2.59a7.55,7.55,0,0,0-2.86,1.32,3.94,3.94,0,0,0-1.1,1.87,17.68,17.68,0,0,0-.33,4.18v13.2H615v-13.2a21.1,21.1,0,0,0-.27-4.13,3.42,3.42,0,0,0-1-1.92,7.77,7.77,0,0,0-2.92-1.32v-2.59h20.64v2.59a8.4,8.4,0,0,0-2.53,1,3,3,0,0,0-1.16,1.32,6.93,6.93,0,0,0-.44,1.87c0,.7-.06,1.75-.06,3.14Z" transform="translate(-26.59 -86.67)"/><path class="cls-7" d="M678.28,565.55V578.1h-5.4a23.65,23.65,0,0,0-2.25-5.07,7,7,0,0,0-2.15-2.09,8.81,8.81,0,0,0-4.29-.77h-8.64V589.1h5.23a6.25,6.25,0,0,0,2.75-.5,3.77,3.77,0,0,0,1.6-1.59,15,15,0,0,0,1.26-3.58h4.46V599.5h-4.46a15,15,0,0,0-1.21-3.52,4.15,4.15,0,0,0-1.59-1.71,5.82,5.82,0,0,0-2.81-.55h-5.23v21.13h8.59a13.82,13.82,0,0,0,2.31-.17,6,6,0,0,0,1.7-.6,5.33,5.33,0,0,0,1.43-1.21,13.5,13.5,0,0,0,1.27-1.6A13.27,13.27,0,0,0,672,609a37.45,37.45,0,0,0,1.32-3.9h5.45L678,619.47H639.1v-2.58a12.12,12.12,0,0,0,2.31-.88,2.71,2.71,0,0,0,1.21-1.27,5.47,5.47,0,0,0,.55-2,24.59,24.59,0,0,0,.17-3.13V575.51c0-1.24,0-2.28-.11-3.14a5.16,5.16,0,0,0-.55-2,3,3,0,0,0-1.27-1.32,9.09,9.09,0,0,0-2.31-.88v-2.59Z" transform="translate(-26.59 -86.67)"/><path class="cls-7" d="M706.59,619.47H685.84v-2.58a12.25,12.25,0,0,0,2.32-.88,2.76,2.76,0,0,0,1.21-1.27,5.88,5.88,0,0,0,.55-2,24.83,24.83,0,0,0,.16-3.13V575.51c0-1.24,0-2.28-.11-3.14a5.16,5.16,0,0,0-.55-2,3,3,0,0,0-1.26-1.32,9.18,9.18,0,0,0-2.32-.88v-2.59H708.9a40.3,40.3,0,0,1,7.87.66,19.13,19.13,0,0,1,5.77,2A12.22,12.22,0,0,1,726,571a11.8,11.8,0,0,1,2.2,3.9,15.87,15.87,0,0,1,.77,5.18,15.17,15.17,0,0,1-1.37,6.65,13.79,13.79,0,0,1-3.69,4.63,26.35,26.35,0,0,1-6.16,3.41v.38a13.32,13.32,0,0,1,4.78,3.41A21.91,21.91,0,0,1,726,603.9l2.53,5.39a22.2,22.2,0,0,0,3.25,5.39,7,7,0,0,0,3.9,2.21v2.58H720.51a54,54,0,0,1-5.17-9.41l-3.08-6.76a23.86,23.86,0,0,0-2.37-4.24,6,6,0,0,0-2-1.76,8,8,0,0,0-3.24-.5H702.3v12.77a21.11,21.11,0,0,0,.27,4.18,3.89,3.89,0,0,0,1.1,1.87,6.93,6.93,0,0,0,2.92,1.27Zm-4.29-49.24v21.95h4a13.9,13.9,0,0,0,5.17-.82,7.68,7.68,0,0,0,3.3-2.37,8.79,8.79,0,0,0,1.65-3.58,21.56,21.56,0,0,0,.44-4.51c0-3.59-.85-6.27-2.53-8s-4.18-2.7-7.48-2.7C704.52,570.17,703,570.2,702.3,570.23Z" transform="translate(-26.59 -86.67)"/><path class="cls-7" d="M778.56,565.55V578.1h-5.39a23.54,23.54,0,0,0-2.26-5.07,7.09,7.09,0,0,0-2.14-2.09,8.88,8.88,0,0,0-4.3-.77h-8.63V589.1h5.22a6.25,6.25,0,0,0,2.75-.5,3.71,3.71,0,0,0,1.6-1.59,15.36,15.36,0,0,0,1.27-3.58h4.45V599.5h-4.45a15.42,15.42,0,0,0-1.22-3.52,4.09,4.09,0,0,0-1.59-1.71,5.79,5.79,0,0,0-2.81-.55h-5.22v21.13h8.58a13.65,13.65,0,0,0,2.31-.17,6.14,6.14,0,0,0,1.71-.6,5.49,5.49,0,0,0,1.43-1.21,14.5,14.5,0,0,0,1.26-1.6,13.27,13.27,0,0,0,1.1-2.31,37.45,37.45,0,0,0,1.32-3.9H779l-.77,14.41H739.38v-2.58a12.12,12.12,0,0,0,2.31-.88,2.73,2.73,0,0,0,1.22-1.27,5.88,5.88,0,0,0,.55-2,24.83,24.83,0,0,0,.16-3.13V575.51c0-1.24,0-2.28-.11-3.14a5.16,5.16,0,0,0-.55-2,3,3,0,0,0-1.27-1.32,9.09,9.09,0,0,0-2.31-.88v-2.59Z" transform="translate(-26.59 -86.67)"/><path class="cls-7" d="M198.94,671.38q.21,0,9.58,0h9.24l.11,1.32a2.92,2.92,0,0,1-.16,1.37,4.93,4.93,0,0,1-2.15.44c-1.18.11-2,.2-2.48.22l-.6.11-.06,18.88h23.39V674.79l-1.76-.16-2.48-.22-.88-.28v-2.8h18.93v2.8l-2.53.39-2.53.27-.06,45.29.28,0a21,21,0,0,0,2.25.28,11.82,11.82,0,0,1,2.48.38c.18,0,.27.44.27,1.21v1.27H230.69v-2.48l.55-.11.94-.11c.4,0,.93-.08,1.59-.16l2-.28V699H212.48v21.29l1.59.17c.58,0,1.08.09,1.49.16l1.05.11,1.1.17v2.42h-19v-2.48l.94-.11,1-.11,1.38-.27,1.7-.17.06-45.34-.44-.11c-2.5-.29-4-.44-4.51-.44-.11,0-.17-.49-.17-1.48S198.79,671.38,198.94,671.38Z" transform="translate(-26.59 -86.67)"/><path class="cls-7" d="M279.89,670.94a27,27,0,0,1,8.59,1.38,24.06,24.06,0,0,1,7.32,3.85,21.8,21.8,0,0,1,5.5,6.05,22.81,22.81,0,0,1,3.08,8.09,23.34,23.34,0,0,1,.44,3.19c.07,1.1.11,2.24.11,3.41a37.93,37.93,0,0,1-1.1,9.3,24.53,24.53,0,0,1-3.41,7.7,21.17,21.17,0,0,1-5.89,5.73,23.72,23.72,0,0,1-8.47,3.41,29.31,29.31,0,0,1-6.33.71,33.18,33.18,0,0,1-8.64-1.37,21.19,21.19,0,0,1-9.46-6q-7.23-7.22-7.21-18.55v-.16a29.4,29.4,0,0,1,3.3-14.09,23.44,23.44,0,0,1,10.45-9.79A25.65,25.65,0,0,1,279.89,670.94Zm0,3.58a12.58,12.58,0,0,0-7.2,2.2,17.43,17.43,0,0,0-5.18,5.56q-3,5.34-3.3,13.7v1.59a39.53,39.53,0,0,0,.77,7.54,26.7,26.7,0,0,0,2.64,7.32,16.82,16.82,0,0,0,4.79,5.5,11.93,11.93,0,0,0,7.32,2.2h.11a12.17,12.17,0,0,0,7.26-2.2,16.31,16.31,0,0,0,4.73-5.5,26.11,26.11,0,0,0,2.53-7.21,37.24,37.24,0,0,0,.83-7.59,46.66,46.66,0,0,0-.39-5.83,27.39,27.39,0,0,0-1.26-5.78,21.44,21.44,0,0,0-2.59-5.23,16.44,16.44,0,0,0-4.18-4.18,10.11,10.11,0,0,0-3.24-1.6A13.54,13.54,0,0,0,279.89,674.52Z" transform="translate(-26.59 -86.67)"/><path class="cls-7" d="M309.6,721.67c0-.91.08-1.44.28-1.59a5.81,5.81,0,0,1,2.69-.39l2.15-.16v-45l-.72-.06h-.33a3.47,3.47,0,0,1-.66-.16c-.3,0-.55-.06-.77-.06h-.49l-1.54-.33v-2.58h18.26v1.32c0,.92,0,1.37-.11,1.37l-.71.06c-.41,0-1,.11-1.71.22l-1.65.27a4.05,4.05,0,0,1-.71.11c-.09,0-.11,7.36-.11,22.07v22.56h15.9l.16-.77c.18-.4.58-1.79,1.21-4.19l.94-3.63,1.65-.05H345v12.6H309.6Z" transform="translate(-26.59 -86.67)"/><path class="cls-7" d="M349.31,671.33c.11,0,.94-.06,2.53-.06h2.86c1.13,0,2.45,0,4,.06h9l.06,1.32c0,.66-.06,1-.17,1.1a14.63,14.63,0,0,1-2.2.49,6.78,6.78,0,0,1-1.21.22,7.48,7.48,0,0,0-.93.06l-.55.11V697.9l.16,22.4.94.16a1.08,1.08,0,0,0,.38.06,4.11,4.11,0,0,1,.77.11,5.59,5.59,0,0,0,.77,0,1.48,1.48,0,0,1,.61.11l1.59.11v2.53H349.09v-2.58l2.36-.22a12.64,12.64,0,0,0,2.59-.5q.1,0,.11-9.85V698c-.09-7-.11-12.41-.11-16.23v-6.88a.35.35,0,0,0-.28-.39,4.29,4.29,0,0,0-1.37-.22c-1.14-.11-2-.18-2.53-.22l-.77-.16V672.7C349.09,671.82,349.15,671.37,349.31,671.33Z" transform="translate(-26.59 -86.67)"/><path class="cls-7" d="M371.63,671.49q.17-.16,13.7-.16t15,.22a22,22,0,0,1,8.53,3,21.37,21.37,0,0,1,6.22,5.78,26.2,26.2,0,0,1,3.85,7.76,29.65,29.65,0,0,1,1.32,8.86,26.43,26.43,0,0,1-1.21,7.81,29.12,29.12,0,0,1-3.3,7.32,27.45,27.45,0,0,1-5.23,6.11,22.45,22.45,0,0,1-6.71,4q-1.32.39-2.64.66a12.58,12.58,0,0,1-2.59.33c-.92,0-2.63.09-5.12.11s-5.7.06-9.73.06H371v-3.25l1.21-.11a10.38,10.38,0,0,1,2.48-.49l1.26-.11V697.19q0-22.17-.27-22.18a5.88,5.88,0,0,1-.66,0c-.33-.07-.81-.17-1.43-.28l-1.38-.22-.55-.05a8.87,8.87,0,0,1-.05-1.49A7.71,7.71,0,0,1,371.63,671.49Zm27.13,4.13-6.88-.11h-7v43.74h6.54c4.41-.11,7-.29,7.76-.55a11.83,11.83,0,0,0,5.34-3.47,19.7,19.7,0,0,0,3.52-5.44,26.69,26.69,0,0,0,1.93-6.5,37.82,37.82,0,0,0,.6-6.38v-1.54a29.31,29.31,0,0,0-.71-5.72A27,27,0,0,0,408,684a18.24,18.24,0,0,0-3.19-4.78,11.19,11.19,0,0,0-4.84-3.14Z" transform="translate(-26.59 -86.67)"/><path class="cls-7" d="M450.15,689l-2.37-7.43c-.11-.07-.16-.07-.16,0,0,.22-.36,1.18-.94,2.86s-1.36,4.13-2.42,7.32l-3.13,10.07h6.43c4.3,0,6.44-.11,6.44-.33s-.3-1-.88-2.7l-1.26-4Q451.14,692.3,450.15,689Zm-3.69-17.66h7.32l2.2,7q12.33,37.47,13.54,41.11l.11.49,2.14.39a4.13,4.13,0,0,0,1.05.16,12.18,12.18,0,0,1,1.82.17l.93,0v2.7H452.46v-1.32c0-.77.07-1.16.22-1.16s1.38-.14,3.69-.44a19.93,19.93,0,0,0,3.46-.55c-.22-.69-.48-1.55-.77-2.58s-.59-2-1-3.25-.85-2.83-1.43-4.57L456,707.2l-8.25-.05h-8.14l-2.15,6.49q-1.87,6.23-1.87,6.44c0,.11.72.24,2.15.38l2.25.33v2.59H424.84V722c0-.88.07-1.33.22-1.37a5.8,5.8,0,0,0,.88-.11l1.43-.22,1.38-.28a4.39,4.39,0,0,0,.77-.16c0-.07.27-.79.71-2.15s1-3.09,1.71-5.12,1.39-4.29,2.2-6.71,1.59-4.68,2.26-6.77,1.22-3.82,1.7-5.22.72-2.18.72-2.26q6.6-20,6.76-20.08A1.64,1.64,0,0,1,446.46,671.33Z" transform="translate(-26.59 -86.67)"/><path class="cls-7" d="M477.86,671.33h22.73v1.37c0,.92-.08,1.38-.22,1.38s-.44,0-1,.11-1.27.11-2.26.22-1.73.15-2.2.22a5.68,5.68,0,0,1-.77,0q0,.23,5.06,9.8t5.06,9.63q.17,0,4.68-9.3c1.46-3.08,2.59-5.41,3.36-7s1.26-2.55,1.37-2.81c0-.07-.2-.13-.6-.22a2.55,2.55,0,0,0-.77-.11,5.9,5.9,0,0,1-1-.22L509,674v-2.69h16.73v1.37c0,.81-.08,1.27-.22,1.38s-1.18.19-3,.44c-1.58.19-2.42.3-2.53.33s-2.52,4.66-6.88,13.53c-1.32,2.75-2.42,5-3.3,6.66s-1.49,2.86-1.82,3.52l-.88,1.76v19.81l.88.11a7.53,7.53,0,0,0,1.05.11l2.2.17,2.53.27v1.27l.11,1.15h-3c-.85,0-2.18.06-4,.06h-15.3v-2.48l.71-.16a15.68,15.68,0,0,1,2.65-.22,23.33,23.33,0,0,0,2.64-.28l.71,0V700.76l-1.1-2a67.63,67.63,0,0,0-3.19-6.16c-1.43-2.67-2.61-4.9-3.52-6.66s-1.64-3.09-2.15-4c-2.24-4.3-3.46-6.52-3.68-6.72s-1.2-.45-3.14-.6a20.87,20.87,0,0,1-3.3-.55c-.19,0-.28-.5-.28-1.38Z" transform="translate(-26.59 -86.67)"/><path class="cls-7" d="M546,671.16a7.35,7.35,0,0,1,.88,0H548a46.25,46.25,0,0,1,5.5.33,47.94,47.94,0,0,1,5.45.88l1.1.22V684.7h-.94c-.63,0-.93-.07-.93-.22s-.33-1.68-1-4.51c-.7-3-1.05-4.42-1.05-4.35a14.41,14.41,0,0,0-1.76-.39c-.66-.13-1.37-.27-2.15-.38s-1.47-.18-2.2-.22-1.3-.11-1.81-.11a13,13,0,0,0-3.08.38,8.72,8.72,0,0,0-2.59,1.16,6.76,6.76,0,0,0-1.87,2,6.12,6.12,0,0,0-.77,3v.27a8.28,8.28,0,0,0,.77,3.69,10.71,10.71,0,0,0,2,2.91,20.25,20.25,0,0,0,2.8,2.37c1.06.7,2.12,1.36,3.19,2A70.22,70.22,0,0,1,556,697a24.75,24.75,0,0,1,2.09,2,16,16,0,0,1,2,2.47,14.77,14.77,0,0,1,1.43,2.76,9.38,9.38,0,0,1,.71,2.8v2.59a13.38,13.38,0,0,1-1.92,7.59,13.55,13.55,0,0,1-6.27,4.57,28.73,28.73,0,0,1-10.13,1.59c-.66,0-1.69,0-3.08-.11s-2.79-.24-4.29-.44-2.86-.38-4.18-.6a12.42,12.42,0,0,1-2.75-.77,50.09,50.09,0,0,1-.17-6.55v-6.44l.5,0a2,2,0,0,1,.82-.11.77.77,0,0,1,.55.16,26.89,26.89,0,0,1,1.6,3.85c.55,1.65,1,3,1.37,3.91s.66,1.57.77,1.82a1.81,1.81,0,0,0,.77.82,14.46,14.46,0,0,0,3.52.66c1.17.08,2.34.11,3.53.11a13.45,13.45,0,0,0,3.35-.27q5.65-1.86,5.83-7.6a6.5,6.5,0,0,0-.77-3.3,8.87,8.87,0,0,0-2.31-2.58A25.22,25.22,0,0,0,546,704c-1.19-.73-2.58-1.51-4.18-2.37a32.94,32.94,0,0,1-4.68-3,21.86,21.86,0,0,1-3.74-3.63,16.85,16.85,0,0,1-2.48-4.41A15.42,15.42,0,0,1,530,685a12.5,12.5,0,0,1,1.15-5.34,9.81,9.81,0,0,1,2.26-3.08,12.79,12.79,0,0,1,2.8-2.42,14.24,14.24,0,0,1,3-1.49,19,19,0,0,1,3.2-.93A35.15,35.15,0,0,1,546,671.16Z" transform="translate(-26.59 -86.67)"/></svg>